<?xml version="1.0" encoding="utf-8"?>

<!-- Uploaded to: SVG Repo, www.svgrepo.com, Generator: SVG Repo Mixer Tools -->
<svg height="800px" width="800px" version="1.1" id="Layer_1" xmlns="http://www.w3.org/2000/svg" xmlns:xlink="http://www.w3.org/1999/xlink" 
	 viewBox="0 0 100 100" enable-background="new 0 0 100 100" xml:space="preserve">
<g>
	<path fill="#53C2BA" d="M50,31.308c-5.828,0-10.553,4.693-10.553,10.483v5.576c0,4.559,3.721,8.255,8.311,8.255h4.485
		c4.59,0,8.311-3.696,8.311-8.255V41.79C60.553,36.001,55.828,31.308,50,31.308z"/>
	<path fill="#FFFFFF" d="M48.901,37.084v3.737h-7.133C41.768,40.821,42.256,37.084,48.901,37.084z"/>
	<path fill="#FFFFFF" d="M51.099,37.084v3.737h7.133C58.232,40.821,57.744,37.084,51.099,37.084z"/>
	<ellipse fill="#FEE36F" cx="29.65" cy="50.695" rx="5.401" ry="5.365"/>
	<ellipse fill="#FFFFFF" cx="29.65" cy="50.695" rx="2.217" ry="2.202"/>
	<ellipse fill="#FEE36F" cx="70.35" cy="50.695" rx="5.401" ry="5.365"/>
	<ellipse fill="#FFFFFF" cx="70.35" cy="50.695" rx="2.217" ry="2.202"/>
	<path fill="#53C2BA" d="M89.975,39.655c-5.57,3.106-29.422,3.81-29.422,3.81v3.902c0,2.002-0.718,3.836-1.911,5.266
		c1.848-0.055,3.774-0.208,6.477-0.624c-0.107-0.421-0.17-0.86-0.17-1.314c0-2.963,2.418-5.365,5.401-5.365
		c2.722,0,4.968,2.003,5.34,4.604c1.653-0.366,3.471-0.781,5.49-1.252C99.062,44.508,95.544,36.549,89.975,39.655z"/>
	<path fill="#53C2BA" d="M29.65,45.33c2.983,0,5.401,2.402,5.401,5.365c0,0.454-0.063,0.893-0.17,1.314
		c2.702,0.416,4.628,0.569,6.477,0.624c-1.193-1.429-1.911-3.264-1.911-5.266v-3.902c0,0-23.852-0.704-29.422-3.81
		c-5.57-3.106-9.087,4.853,8.794,9.027c2.019,0.471,3.837,0.886,5.49,1.252C24.683,47.332,26.928,45.33,29.65,45.33z"/>
	<path fill="#FEE36F" d="M50,31.308c0.953,0,1.873,0.137,2.751,0.372c-0.231-6.265-1.299-12.565-2.035-16.27
		c-0.241-1.211-1.191-1.211-1.432,0c-0.736,3.705-1.804,10.005-2.035,16.27C48.127,31.445,49.047,31.308,50,31.308z"/>
	<g>
		<path fill="#53C2BA" d="M31.39,32.609c0.758,0.864,4.933,1.789,10.699,2.26c1.934-2.179,4.757-3.561,7.911-3.561H31.867
			C31.867,31.308,30.316,31.385,31.39,32.609z"/>
		<path fill="#53C2BA" d="M68.133,31.308H50c3.154,0,5.977,1.382,7.911,3.561c5.766-0.47,9.941-1.396,10.699-2.26
			C69.684,31.385,68.133,31.308,68.133,31.308z"/>
	</g>
	<path fill="#136296" d="M41.768,41.324h7.133c0.279,0,0.506-0.225,0.506-0.502v-3.737c0-0.277-0.226-0.502-0.506-0.502
		c-7.008,0-7.612,4.004-7.634,4.175c-0.019,0.143,0.026,0.288,0.121,0.396C41.484,41.261,41.622,41.324,41.768,41.324z
		 M48.395,37.594v2.725h-5.936C42.887,39.408,44.237,37.721,48.395,37.594z"/>
	<path fill="#136296" d="M51.099,41.324h7.133c0.145,0,0.284-0.062,0.38-0.171c0.096-0.109,0.14-0.253,0.121-0.396
		c-0.022-0.17-0.626-4.175-7.634-4.175c-0.279,0-0.506,0.225-0.506,0.502v3.737C50.594,41.099,50.82,41.324,51.099,41.324z
		 M51.605,37.594c4.16,0.127,5.51,1.816,5.937,2.725h-5.937V37.594z"/>
	<path fill="#136296" d="M29.65,47.991c-1.501,0-2.722,1.213-2.722,2.704c0,1.491,1.221,2.704,2.722,2.704
		c1.501,0,2.722-1.213,2.722-2.704C32.372,49.204,31.151,47.991,29.65,47.991z M29.65,52.394c-0.943,0-1.711-0.763-1.711-1.7
		c0-0.937,0.768-1.699,1.711-1.699c0.943,0,1.711,0.762,1.711,1.699C31.361,51.632,30.594,52.394,29.65,52.394z"/>
	<path fill="#136296" d="M70.35,47.991c-1.501,0-2.722,1.213-2.722,2.704c0,1.491,1.221,2.704,2.722,2.704s2.722-1.213,2.722-2.704
		C73.072,49.204,71.851,47.991,70.35,47.991z M70.35,52.394c-0.943,0-1.711-0.763-1.711-1.7c0-0.937,0.768-1.699,1.711-1.699
		s1.711,0.762,1.711,1.699C72.061,51.632,71.293,52.394,70.35,52.394z"/>
	<path fill="#136296" d="M18.704,49.171c1.848,0.431,3.52,0.812,5.059,1.156c-0.008,0.122-0.019,0.244-0.019,0.368
		c0,3.235,2.65,5.867,5.906,5.867c2.596,0,4.802-1.675,5.592-3.992c2.174,0.322,3.975,0.492,5.891,0.557
		c1.617,1.833,3.984,2.998,6.625,2.998h4.485c2.641,0,5.007-1.165,6.625-2.998c1.916-0.065,3.717-0.235,5.891-0.557
		c0.79,2.317,2.995,3.992,5.592,3.992c3.257,0,5.906-2.632,5.906-5.867c0-0.124-0.011-0.246-0.019-0.368
		c1.539-0.343,3.211-0.724,5.059-1.156c11.723-2.736,13.404-6.737,13.64-7.898c0.193-0.949-0.111-1.793-0.832-2.315
		c-1.051-0.759-2.728-0.66-4.377,0.259c-4.95,2.761-25.163,3.602-28.668,3.728V41.79c0-2.433-0.802-4.682-2.154-6.505
		c4.39-0.41,9.093-1.214,10.087-2.347c0.464-0.529,0.609-1.009,0.43-1.428c-0.267-0.625-1.099-0.697-1.263-0.705
		c-0.009,0-0.017-0.001-0.025-0.001H53.218c-0.284-5.857-1.236-11.616-2.006-15.492C51.02,14.345,50.46,14,50,14
		s-1.02,0.345-1.212,1.313c-0.77,3.876-1.723,9.635-2.006,15.492l-14.94,0.001c-0.164,0.008-0.995,0.08-1.263,0.705
		c-0.179,0.418-0.034,0.898,0.43,1.428c0.994,1.132,5.697,1.936,10.087,2.347c-1.353,1.822-2.154,4.072-2.154,6.505v1.155
		c-3.506-0.126-23.718-0.967-28.668-3.728c-1.649-0.919-3.325-1.019-4.377-0.259c-0.722,0.522-1.025,1.366-0.832,2.315
		C5.3,42.434,6.981,46.435,18.704,49.171z M29.65,55.557c-2.699,0-4.895-2.182-4.895-4.863c0-0.234,0.022-0.462,0.055-0.688
		c0-0.001,0.001-0.001,0.001-0.002c0.234-1.633,1.288-2.99,2.708-3.681c0.005-0.002,0.01-0.005,0.015-0.007
		c0.12-0.058,0.242-0.11,0.367-0.158c0.022-0.008,0.044-0.016,0.065-0.024c0.111-0.041,0.224-0.079,0.339-0.112
		c0.043-0.012,0.086-0.022,0.129-0.033c0.099-0.026,0.197-0.05,0.298-0.069c0.073-0.014,0.148-0.023,0.222-0.034
		c0.076-0.011,0.15-0.024,0.227-0.032c0.155-0.015,0.312-0.024,0.47-0.024c2.699,0,4.895,2.182,4.895,4.863
		c0,0.19-0.013,0.385-0.038,0.581c-0.001,0.009-0.003,0.018-0.004,0.028c-0.026,0.192-0.062,0.386-0.112,0.581
		C33.855,53.991,31.936,55.557,29.65,55.557z M70.35,55.557c-2.286,0-4.205-1.566-4.741-3.674c-0.049-0.195-0.086-0.389-0.112-0.581
		c-0.001-0.009-0.003-0.018-0.004-0.028c-0.025-0.196-0.038-0.39-0.038-0.581c0-2.681,2.196-4.863,4.895-4.863
		c0.159,0,0.316,0.009,0.471,0.024c0.076,0.007,0.151,0.021,0.227,0.032c0.074,0.011,0.149,0.02,0.222,0.034
		c0.101,0.019,0.2,0.044,0.298,0.069c0.043,0.011,0.086,0.021,0.129,0.033c0.115,0.033,0.228,0.071,0.339,0.112
		c0.022,0.008,0.044,0.016,0.065,0.024c0.125,0.048,0.247,0.1,0.367,0.158c0.005,0.002,0.01,0.005,0.015,0.007
		c1.42,0.691,2.474,2.048,2.708,3.681c0,0.001,0.001,0.001,0.001,0.002c0.032,0.225,0.055,0.454,0.055,0.688
		C75.245,53.376,73.049,55.557,70.35,55.557z M90.222,40.093c1.555-0.867,2.742-0.716,3.286-0.323c0.4,0.289,0.551,0.74,0.436,1.304
		c-0.405,1.992-4.021,5.051-12.88,7.119c-1.812,0.423-3.462,0.8-4.976,1.138c0,0,0,0,0-0.001c-0.463-1.92-1.876-3.472-3.719-4.142
		c-0.032-0.012-0.064-0.024-0.097-0.035c-0.115-0.04-0.232-0.075-0.351-0.108c-0.064-0.018-0.129-0.034-0.193-0.05
		c-0.099-0.024-0.199-0.047-0.3-0.065c-0.097-0.018-0.196-0.031-0.294-0.045c-0.077-0.01-0.154-0.023-0.232-0.03
		c-0.183-0.017-0.367-0.028-0.553-0.028c-3.257,0-5.906,2.632-5.906,5.867c0,0.168,0.01,0.337,0.026,0.508
		c0.008,0.097,0.022,0.192,0.035,0.287c0.005,0.034,0.007,0.067,0.012,0.101c-1.778,0.261-3.299,0.418-4.85,0.497
		c0.116-0.18,0.224-0.364,0.326-0.551c0,0,0.001-0.001,0.001-0.001c0.119-0.217,0.225-0.441,0.324-0.667
		c0.035-0.08,0.068-0.161,0.101-0.242c0.064-0.159,0.124-0.321,0.178-0.483c0.029-0.085,0.059-0.17,0.086-0.256
		c0.069-0.229,0.13-0.461,0.181-0.696c0.016-0.076,0.028-0.154,0.042-0.232c0.035-0.186,0.064-0.372,0.086-0.561
		c0.01-0.082,0.019-0.163,0.027-0.246c0.024-0.261,0.04-0.523,0.04-0.787v-3.416C64.592,43.83,84.989,43.011,90.222,40.093z
		 M68.476,31.905c-0.016,0.052-0.07,0.172-0.247,0.374c-0.562,0.641-4.286,1.576-10.105,2.068c-0.985-1.06-2.178-1.926-3.513-2.537
		h13.506C68.245,31.819,68.406,31.863,68.476,31.905z M49.78,15.507c0.073-0.368,0.207-0.493,0.202-0.506
		c0.032,0.013,0.165,0.138,0.238,0.506c0.625,3.145,1.684,9.192,1.986,15.298H50l-2.206,0C48.096,24.7,49.155,18.653,49.78,15.507z
		 M31.771,32.279c-0.177-0.202-0.231-0.322-0.247-0.374c0.072-0.043,0.237-0.088,0.343-0.095h13.522
		c-1.335,0.611-2.528,1.477-3.513,2.537C36.057,33.855,32.333,32.919,31.771,32.279z M39.953,41.79c0-2.65,1.052-5.056,2.755-6.845
		c0.127-0.133,0.257-0.263,0.39-0.389c0.1-0.094,0.201-0.185,0.305-0.275c0.142-0.123,0.287-0.242,0.435-0.357
		c0.113-0.087,0.227-0.173,0.344-0.256c0.132-0.093,0.265-0.184,0.401-0.271c0.145-0.093,0.293-0.182,0.444-0.268
		c0.113-0.064,0.226-0.127,0.342-0.187c0.184-0.096,0.372-0.185,0.563-0.27c0.113-0.05,0.226-0.097,0.341-0.143
		c0.204-0.081,0.411-0.158,0.621-0.226c0.099-0.032,0.2-0.061,0.3-0.09c0.077-0.022,0.155-0.039,0.233-0.06
		c0.336-0.089,0.671-0.156,1.005-0.21c0.116-0.018,0.232-0.039,0.349-0.053c0.13-0.016,0.259-0.028,0.388-0.039
		c0.243-0.02,0.488-0.035,0.736-0.037c0.064-0.001,0.129-0.001,0.194,0c0.248,0.002,0.492,0.017,0.736,0.037
		c0.129,0.011,0.259,0.023,0.388,0.039c0.118,0.014,0.233,0.035,0.349,0.053c0.334,0.054,0.669,0.122,1.005,0.21
		c0.077,0.02,0.155,0.037,0.232,0.059c0.101,0.029,0.202,0.058,0.302,0.091c0.21,0.068,0.416,0.144,0.619,0.225
		c0.115,0.046,0.23,0.094,0.343,0.144c0.19,0.084,0.377,0.174,0.561,0.269c0.116,0.06,0.23,0.124,0.344,0.189
		c0.149,0.085,0.294,0.173,0.438,0.265c0.137,0.088,0.272,0.179,0.406,0.274c0.116,0.083,0.231,0.168,0.343,0.255
		c0.148,0.114,0.292,0.233,0.434,0.356c0.104,0.091,0.207,0.183,0.307,0.278c0.13,0.122,0.257,0.249,0.381,0.378
		c1.708,1.79,2.763,4.199,2.763,6.854v1.674v2.753c-0.12,0.145-0.35,0.41-0.694,0.74c-0.201,0.192-0.207,0.51-0.013,0.71
		c0.099,0.102,0.231,0.154,0.364,0.154c0.117,0,0.232-0.044,0.327-0.125c-0.006,0.134-0.008,0.269-0.02,0.402
		c-0.009,0.097-0.025,0.193-0.038,0.289c-0.019,0.141-0.038,0.282-0.065,0.42c-0.022,0.114-0.049,0.227-0.075,0.339
		c-0.028,0.119-0.058,0.238-0.092,0.355c-0.033,0.114-0.069,0.227-0.107,0.339c-0.04,0.117-0.083,0.233-0.128,0.348
		c-0.041,0.103-0.082,0.206-0.127,0.307c-0.058,0.131-0.122,0.259-0.187,0.385c-0.041,0.079-0.08,0.16-0.123,0.238
		c-0.094,0.168-0.195,0.331-0.3,0.49c-0.023,0.034-0.043,0.07-0.066,0.104c-1.405,2.054-3.776,3.406-6.459,3.406h-4.485
		c-2.683,0-5.053-1.352-6.459-3.406c-0.023-0.034-0.043-0.07-0.066-0.104c-0.106-0.16-0.206-0.323-0.3-0.49
		c-0.043-0.078-0.082-0.158-0.123-0.237c-0.065-0.127-0.129-0.255-0.188-0.386c-0.045-0.101-0.086-0.204-0.126-0.306
		c-0.045-0.115-0.089-0.231-0.129-0.349c-0.038-0.112-0.074-0.225-0.107-0.339c-0.034-0.117-0.064-0.236-0.092-0.355
		c-0.027-0.113-0.054-0.225-0.075-0.339c-0.026-0.139-0.046-0.279-0.065-0.42c-0.013-0.096-0.029-0.192-0.038-0.289
		c-0.012-0.132-0.015-0.267-0.02-0.402c0.095,0.081,0.21,0.125,0.327,0.125c0.132,0,0.265-0.051,0.364-0.154
		c0.194-0.2,0.188-0.517-0.013-0.71c-0.344-0.33-0.575-0.594-0.694-0.74v-2.753V41.79z M6.492,39.77
		c0.544-0.394,1.731-0.545,3.286,0.323c5.233,2.918,25.631,3.737,29.164,3.858v3.416c0,0.264,0.016,0.526,0.04,0.787
		c0.007,0.083,0.017,0.164,0.027,0.246c0.023,0.188,0.052,0.375,0.086,0.561c0.014,0.077,0.026,0.155,0.042,0.232
		c0.05,0.235,0.111,0.467,0.181,0.696c0.026,0.086,0.057,0.171,0.086,0.256c0.055,0.163,0.114,0.324,0.178,0.483
		c0.033,0.081,0.065,0.162,0.101,0.242c0.099,0.226,0.205,0.45,0.324,0.667c0,0,0,0.001,0.001,0.001
		c0.102,0.187,0.21,0.371,0.326,0.551c-1.551-0.08-3.071-0.236-4.85-0.497c0.005-0.034,0.007-0.067,0.012-0.101
		c0.013-0.095,0.026-0.191,0.035-0.287c0.016-0.171,0.026-0.34,0.026-0.508c0-3.235-2.65-5.867-5.906-5.867
		c-0.186,0-0.371,0.011-0.553,0.028c-0.078,0.007-0.154,0.02-0.232,0.03c-0.099,0.013-0.197,0.027-0.294,0.045
		c-0.101,0.019-0.201,0.042-0.3,0.065c-0.065,0.016-0.129,0.032-0.193,0.05c-0.118,0.033-0.235,0.068-0.351,0.108
		c-0.032,0.011-0.064,0.023-0.097,0.035c-1.842,0.669-3.256,2.222-3.719,4.142c0,0,0,0,0,0c-1.514-0.338-3.164-0.715-4.976-1.138
		c-8.859-2.068-12.475-5.127-12.88-7.119C5.941,40.51,6.092,40.059,6.492,39.77z"/>
	<g>
		<path fill="#136296" d="M58.276,48.503c-0.153-0.232-0.466-0.297-0.7-0.145c-0.632,0.41-1.307,0.769-2.006,1.066
			c-0.257,0.109-0.376,0.404-0.266,0.659c0.082,0.191,0.269,0.305,0.465,0.305c0.066,0,0.134-0.013,0.198-0.041
			c0.754-0.32,1.482-0.706,2.162-1.149C58.364,49.046,58.429,48.735,58.276,48.503z"/>
		<path fill="#136296" d="M44.44,49.429c-0.701-0.297-1.376-0.655-2.006-1.064c-0.234-0.152-0.547-0.086-0.7,0.145
			c-0.153,0.232-0.087,0.543,0.146,0.695c0.68,0.441,1.408,0.827,2.163,1.148c0.065,0.027,0.132,0.04,0.198,0.04
			c0.197,0,0.383-0.115,0.465-0.306C44.817,49.833,44.697,49.538,44.44,49.429z"/>
		<path fill="#136296" d="M53.407,50.132c-0.728,0.172-1.487,0.288-2.257,0.345c-0.278,0.021-0.487,0.262-0.466,0.538
			c0.02,0.264,0.241,0.465,0.504,0.465c0.013,0,0.025,0,0.038-0.001c0.823-0.061,1.636-0.185,2.416-0.37
			c0.272-0.064,0.439-0.335,0.375-0.605C53.951,50.234,53.679,50.066,53.407,50.132z"/>
		<path fill="#136296" d="M48.861,50.478c-0.769-0.056-1.528-0.172-2.257-0.344c-0.271-0.064-0.544,0.103-0.609,0.373
			c-0.064,0.27,0.104,0.541,0.375,0.605c0.781,0.184,1.594,0.308,2.416,0.368c0.013,0.001,0.025,0.001,0.038,0.001
			c0.262,0,0.484-0.201,0.504-0.465C49.349,50.739,49.14,50.498,48.861,50.478z"/>
	</g>
	<g>
		<path fill="#136296" d="M5.506,73.884h88.989c0.279,0,0.506-0.225,0.506-0.502s-0.226-0.502-0.506-0.502H5.506
			C5.226,72.88,5,73.105,5,73.382S5.226,73.884,5.506,73.884z"/>
		<path fill="#136296" d="M5.506,77.546h1.77c0.279,0,0.506-0.225,0.506-0.502s-0.226-0.502-0.506-0.502h-1.77
			C5.226,76.542,5,76.767,5,77.044S5.226,77.546,5.506,77.546z"/>
		<path fill="#136296" d="M41.455,76.542h-3.418c-0.279,0-0.506,0.225-0.506,0.502s0.226,0.502,0.506,0.502h3.418
			c0.279,0,0.506-0.225,0.506-0.502S41.734,76.542,41.455,76.542z"/>
		<path fill="#136296" d="M27.783,76.542h-3.418c-0.279,0-0.506,0.225-0.506,0.502s0.226,0.502,0.506,0.502h3.418
			c0.279,0,0.506-0.225,0.506-0.502S28.062,76.542,27.783,76.542z"/>
		<path fill="#136296" d="M61.963,76.542h-3.418c-0.279,0-0.506,0.225-0.506,0.502s0.226,0.502,0.506,0.502h3.418
			c0.279,0,0.506-0.225,0.506-0.502S62.242,76.542,61.963,76.542z"/>
		<path fill="#136296" d="M82.471,76.542h-3.418c-0.279,0-0.506,0.225-0.506,0.502s0.226,0.502,0.506,0.502h3.418
			c0.279,0,0.506-0.225,0.506-0.502S82.75,76.542,82.471,76.542z"/>
		<path fill="#136296" d="M89.307,76.542h-3.418c-0.279,0-0.506,0.225-0.506,0.502s0.226,0.502,0.506,0.502h3.418
			c0.279,0,0.506-0.225,0.506-0.502S89.586,76.542,89.307,76.542z"/>
		<path fill="#136296" d="M34.619,76.542h-3.418c-0.279,0-0.506,0.225-0.506,0.502s0.226,0.502,0.506,0.502h3.418
			c0.279,0,0.506-0.225,0.506-0.502S34.898,76.542,34.619,76.542z"/>
		<path fill="#136296" d="M72.217,76.542c-0.279,0-0.506,0.225-0.506,0.502s0.226,0.502,0.506,0.502h3.418
			c0.279,0,0.506-0.225,0.506-0.502s-0.226-0.502-0.506-0.502H72.217z"/>
		<path fill="#136296" d="M51.709,76.542c-0.279,0-0.506,0.225-0.506,0.502s0.226,0.502,0.506,0.502h3.418
			c0.279,0,0.506-0.225,0.506-0.502s-0.226-0.502-0.506-0.502H51.709z"/>
		<path fill="#136296" d="M68.799,76.542h-3.418c-0.279,0-0.506,0.225-0.506,0.502s0.226,0.502,0.506,0.502h3.418
			c0.279,0,0.506-0.225,0.506-0.502S69.078,76.542,68.799,76.542z"/>
		<path fill="#136296" d="M20.947,76.542h-3.418c-0.279,0-0.506,0.225-0.506,0.502s0.226,0.502,0.506,0.502h3.418
			c0.279,0,0.506-0.225,0.506-0.502S21.226,76.542,20.947,76.542z"/>
		<path fill="#136296" d="M48.291,76.542h-3.418c-0.279,0-0.506,0.225-0.506,0.502s0.226,0.502,0.506,0.502h3.418
			c0.279,0,0.506-0.225,0.506-0.502S48.57,76.542,48.291,76.542z"/>
		<path fill="#136296" d="M14.111,76.542h-3.418c-0.279,0-0.506,0.225-0.506,0.502s0.226,0.502,0.506,0.502h3.418
			c0.279,0,0.506-0.225,0.506-0.502S14.39,76.542,14.111,76.542z"/>
		<path fill="#136296" d="M94.494,76.542h-1.77c-0.279,0-0.506,0.225-0.506,0.502s0.226,0.502,0.506,0.502h1.77
			c0.279,0,0.506-0.225,0.506-0.502S94.774,76.542,94.494,76.542z"/>
		<path fill="#136296" d="M8.034,80.892H5.506C5.226,80.892,5,81.117,5,81.394s0.226,0.502,0.506,0.502h2.528
			c0.279,0,0.506-0.225,0.506-0.502S8.313,80.892,8.034,80.892z"/>
		<path fill="#136296" d="M28.288,81.394c0-0.277-0.226-0.502-0.506-0.502h-4.937c-0.279,0-0.506,0.225-0.506,0.502
			s0.226,0.502,0.506,0.502h4.937C28.062,81.896,28.288,81.671,28.288,81.394z"/>
		<path fill="#136296" d="M57.406,80.892h-4.937c-0.279,0-0.506,0.225-0.506,0.502s0.226,0.502,0.506,0.502h4.937
			c0.279,0,0.506-0.225,0.506-0.502S57.685,80.892,57.406,80.892z"/>
		<path fill="#136296" d="M48.037,81.394c0-0.277-0.226-0.502-0.506-0.502h-4.937c-0.279,0-0.506,0.225-0.506,0.502
			s0.226,0.502,0.506,0.502h4.937C47.811,81.896,48.037,81.671,48.037,81.394z"/>
		<path fill="#136296" d="M77.155,80.892h-4.937c-0.279,0-0.506,0.225-0.506,0.502s0.226,0.502,0.506,0.502h4.937
			c0.279,0,0.506-0.225,0.506-0.502S77.434,80.892,77.155,80.892z"/>
		<path fill="#136296" d="M12.465,81.394c0,0.277,0.226,0.502,0.506,0.502h4.937c0.279,0,0.506-0.225,0.506-0.502
			s-0.226-0.502-0.506-0.502h-4.937C12.692,80.892,12.465,81.117,12.465,81.394z"/>
		<path fill="#136296" d="M32.214,81.394c0,0.277,0.226,0.502,0.506,0.502h4.937c0.279,0,0.506-0.225,0.506-0.502
			s-0.226-0.502-0.506-0.502H32.72C32.44,80.892,32.214,81.117,32.214,81.394z"/>
		<path fill="#136296" d="M81.586,81.394c0,0.277,0.226,0.502,0.506,0.502h4.937c0.279,0,0.506-0.225,0.506-0.502
			s-0.226-0.502-0.506-0.502h-4.937C81.813,80.892,81.586,81.117,81.586,81.394z"/>
		<path fill="#136296" d="M61.837,81.394c0,0.277,0.226,0.502,0.506,0.502h4.937c0.279,0,0.506-0.225,0.506-0.502
			s-0.226-0.502-0.506-0.502h-4.937C62.064,80.892,61.837,81.117,61.837,81.394z"/>
		<path fill="#136296" d="M94.494,80.892h-2.528c-0.279,0-0.506,0.225-0.506,0.502s0.226,0.502,0.506,0.502h2.528
			c0.279,0,0.506-0.225,0.506-0.502S94.774,80.892,94.494,80.892z"/>
		<path fill="#136296" d="M7.275,84.996h-1.77C5.226,84.996,5,85.221,5,85.498S5.226,86,5.506,86h1.77
			c0.279,0,0.506-0.225,0.506-0.502S7.555,84.996,7.275,84.996z"/>
		<path fill="#136296" d="M89.307,84.996h-3.418c-0.279,0-0.506,0.225-0.506,0.502S85.609,86,85.889,86h3.418
			c0.279,0,0.506-0.225,0.506-0.502S89.586,84.996,89.307,84.996z"/>
		<path fill="#136296" d="M68.799,84.996h-3.418c-0.279,0-0.506,0.225-0.506,0.502S65.102,86,65.381,86h3.418
			c0.279,0,0.506-0.225,0.506-0.502S69.078,84.996,68.799,84.996z"/>
		<path fill="#136296" d="M75.635,84.996h-3.418c-0.279,0-0.506,0.225-0.506,0.502S71.938,86,72.217,86h3.418
			c0.279,0,0.506-0.225,0.506-0.502S75.914,84.996,75.635,84.996z"/>
		<path fill="#136296" d="M82.471,84.996h-3.418c-0.279,0-0.506,0.225-0.506,0.502S78.774,86,79.053,86h3.418
			c0.279,0,0.506-0.225,0.506-0.502S82.75,84.996,82.471,84.996z"/>
		<path fill="#136296" d="M34.619,84.996h-3.418c-0.279,0-0.506,0.225-0.506,0.502S30.922,86,31.201,86h3.418
			c0.279,0,0.506-0.225,0.506-0.502S34.898,84.996,34.619,84.996z"/>
		<path fill="#136296" d="M27.783,84.996h-3.418c-0.279,0-0.506,0.225-0.506,0.502S24.086,86,24.365,86h3.418
			c0.279,0,0.506-0.225,0.506-0.502S28.062,84.996,27.783,84.996z"/>
		<path fill="#136296" d="M61.963,84.996h-3.418c-0.279,0-0.506,0.225-0.506,0.502S58.266,86,58.545,86h3.418
			c0.279,0,0.506-0.225,0.506-0.502S62.242,84.996,61.963,84.996z"/>
		<path fill="#136296" d="M20.947,84.996h-3.418c-0.279,0-0.506,0.225-0.506,0.502S17.25,86,17.529,86h3.418
			c0.279,0,0.506-0.225,0.506-0.502S21.226,84.996,20.947,84.996z"/>
		<path fill="#136296" d="M14.111,84.996h-3.418c-0.279,0-0.506,0.225-0.506,0.502S10.414,86,10.693,86h3.418
			c0.279,0,0.506-0.225,0.506-0.502S14.39,84.996,14.111,84.996z"/>
		<path fill="#136296" d="M41.455,84.996h-3.418c-0.279,0-0.506,0.225-0.506,0.502S37.758,86,38.037,86h3.418
			c0.279,0,0.506-0.225,0.506-0.502S41.734,84.996,41.455,84.996z"/>
		<path fill="#136296" d="M48.291,84.996h-3.418c-0.279,0-0.506,0.225-0.506,0.502S44.594,86,44.873,86h3.418
			c0.279,0,0.506-0.225,0.506-0.502S48.57,84.996,48.291,84.996z"/>
		<path fill="#136296" d="M55.127,84.996h-3.418c-0.279,0-0.506,0.225-0.506,0.502S51.43,86,51.709,86h3.418
			c0.279,0,0.506-0.225,0.506-0.502S55.406,84.996,55.127,84.996z"/>
		<path fill="#136296" d="M94.494,84.996h-1.77c-0.279,0-0.506,0.225-0.506,0.502S92.445,86,92.725,86h1.77
			C94.774,86,95,85.775,95,85.498S94.774,84.996,94.494,84.996z"/>
	</g>
</g>
</svg>