<?xml version="1.0" encoding="utf-8"?>
<!-- Uploaded to: SVG Repo, www.svgrepo.com, Generator: SVG Repo Mixer Tools -->
<svg width="800px" height="800px" viewBox="-13.81 0 110.516 110.516" xmlns="http://www.w3.org/2000/svg">
  <g id="Group_1129" data-name="Group 1129" transform="translate(-1781.624 -14075.277)">
    <path id="Path_807" data-name="Path 807" d="M-3371.244,2245.441a11.708,11.708,0,0,1-11.71,11.71,11.708,11.708,0,0,1-11.709-11.71,11.707,11.707,0,0,1,11.709-11.71,11.707,11.707,0,0,1,11.71,11.71" transform="translate(5186 11845)" fill="#812839" fill-rule="evenodd"/>
    <path id="Path_808" data-name="Path 808" d="M-3380.633,2244.666a3.6,3.6,0,0,1-3.595,3.6,3.594,3.594,0,0,1-3.6-3.6,3.6,3.6,0,0,1,3.6-3.6,3.6,3.6,0,0,1,3.595,3.6" transform="translate(5186 11845)" fill="#b06b76" fill-rule="evenodd"/>
    <path id="Path_809" data-name="Path 809" d="M-3330.3,2243.39a11.707,11.707,0,0,1-11.71,11.71,11.709,11.709,0,0,1-11.71-11.71,11.709,11.709,0,0,1,11.71-11.71,11.708,11.708,0,0,1,11.71,11.71" transform="translate(5186 11845)" fill="#812839" fill-rule="evenodd"/>
    <path id="Path_810" data-name="Path 810" d="M-3338.289,2243.477a3.6,3.6,0,0,1-3.6,3.6,3.6,3.6,0,0,1-3.6-3.6,3.6,3.6,0,0,1,3.6-3.594,3.6,3.6,0,0,1,3.6,3.594" transform="translate(5186 11845)" fill="#b06b76" fill-rule="evenodd"/>
    <path id="Path_811" data-name="Path 811" d="M-3340.339,2253.3l-9.212-11.939-14.245-4.172-12.952,4.459-11.078,13.1v13.1l3.595,8.344,8.2-.286,13.815,5.466,5.611-4.6,15.11-.718,4.031-11.515-2.877-11.228" transform="translate(5186 11845)" fill="#812839" fill-rule="evenodd"/>
    <path id="Path_812" data-name="Path 812" d="M-3361.348,2266.9l-8.492,1.872-1.869,6.837,9.066,5.1,7.916-6.044v-3.163l-6.621-4.607" transform="translate(5186 11845)" fill="#b06b76" fill-rule="evenodd"/>
    <path id="Path_813" data-name="Path 813" d="M-3332.445,2284.374l-9.612-7.665-9.321-.726-11.737,5.6-2.313-1.6-8.53-4-8,.449-10.485,6.145-3.113,9.771.887,9.429,9.959,14.665,9.427,10.314,12.985,8.617,6.921-5.694,16.813-14.84,8.265-19.21-2.142-11.255" transform="translate(5186 11845)" fill="#ef204d" fill-rule="evenodd"/>
    <path id="Path_814" data-name="Path 814" d="M-3387.826,2287.4l-6.837-3.741-6.115,7.052-1,9.639,7.119,6.044,4.209-1,4.212-7.63-1.584-10.36" transform="translate(5186 11845)" fill="#812839" fill-rule="evenodd"/>
    <path id="Path_815" data-name="Path 815" d="M-3325.949,2286.682l-6.836-3.741-6.114,7.053-1.006,9.639,7.12,6.044,4.209-1.006,4.213-7.629-1.586-10.36" transform="translate(5186 11845)" fill="#812839" fill-rule="evenodd"/>
    <path id="Path_816" data-name="Path 816" d="M-3373.581,2315.178l-7.052-4.173-8.057,2.878-4.317,5.756,1.008,10.792,4.749,6.618,6.618,1.295,8.923-6.044,1.15-10.071-3.022-7.051" transform="translate(5186 11845)" fill="#812839" fill-rule="evenodd"/>
    <path id="Path_817" data-name="Path 817" d="M-3336.6,2316.041l-7.052-4.172-8.058,2.877-4.317,5.756,1.008,10.794,4.749,6.617,6.618,1.294,8.924-6.043,1.149-10.072-3.021-7.051" transform="translate(5186 11845)" fill="#812839" fill-rule="evenodd"/>
    <path id="Path_818" data-name="Path 818" d="M-3339.493,2309.657a12.075,12.075,0,0,0-5.022-1.1c-7.629,0-13.815,7.215-13.815,16.118a18.78,18.78,0,0,0,.206,2.768c-1.908,1.387-3.571,2.507-4.809,3.312-1.238-.805-2.9-1.925-4.81-3.314a18.471,18.471,0,0,0,.207-2.766c0-8.9-6.187-16.118-13.819-16.118a12.067,12.067,0,0,0-5.018,1.1c-.756-1.04-1.477-2.1-2.141-3.191,2.916-2.445,4.86-6.78,4.86-11.714,0-5.173-2.133-9.683-5.289-12.05.2-.229.411-.452.63-.671a15.429,15.429,0,0,1,10.989-4.55,15.416,15.416,0,0,1,11.1,4.664l3.289,3.356,3.288-3.356a15.423,15.423,0,0,1,11.1-4.664,15.42,15.42,0,0,1,10.988,4.55c.22.219.429.442.631.671-3.157,2.367-5.288,6.877-5.288,12.05,0,4.934,1.939,9.269,4.86,11.714C-3338.016,2307.552-3338.734,2308.617-3339.493,2309.657Zm4.188,15.021a12.848,12.848,0,0,1-2.937,8.4,8.28,8.28,0,0,1-6.273,3.114,8.276,8.276,0,0,1-6.27-3.114,12.844,12.844,0,0,1-2.938-8.4,12.833,12.833,0,0,1,2.938-8.4,8.275,8.275,0,0,1,6.27-3.116,8.279,8.279,0,0,1,6.273,3.116A12.832,12.832,0,0,1-3335.3,2324.678Zm-39.777,8.4a8.272,8.272,0,0,1-6.273,3.114,8.282,8.282,0,0,1-6.27-3.114,12.864,12.864,0,0,1-2.937-8.4,12.848,12.848,0,0,1,2.937-8.4,8.281,8.281,0,0,1,6.27-3.116,8.271,8.271,0,0,1,6.273,3.116,12.828,12.828,0,0,1,2.938,8.4A12.844,12.844,0,0,1-3375.082,2333.076Zm-22.576-31.312a11.91,11.91,0,0,1-2.112-7.012,11.909,11.909,0,0,1,2.112-7.011,4.925,4.925,0,0,1,3.642-2.206,4.929,4.929,0,0,1,3.643,2.206,9.8,9.8,0,0,1,1.349,2.557,2.3,2.3,0,0,0-1.538,2.168,2.3,2.3,0,0,0,2.159,2.3,2.3,2.3,0,0,0-2.159,2.293,2.3,2.3,0,0,0,1.535,2.169,10.068,10.068,0,0,1-1.346,2.539,4.929,4.929,0,0,1-3.643,2.206A4.925,4.925,0,0,1-3397.658,2301.764Zm34.725-27.741a2.3,2.3,0,0,0,2.3-2.3,2.3,2.3,0,0,0-2.169-2.293,6.917,6.917,0,0,1,6.381,5.045,20.134,20.134,0,0,0-6.516,4.453,20.162,20.162,0,0,0-6.759-4.554,6.917,6.917,0,0,1,6.624-4.95h.091a2.3,2.3,0,0,0-2.259,2.3A2.3,2.3,0,0,0-3362.933,2274.023Zm-23.022-11.51a22.881,22.881,0,0,1,6.745-16.29,22.894,22.894,0,0,1,16.291-6.749,22.9,22.9,0,0,1,16.293,6.749,22.882,22.882,0,0,1,6.746,16.29,22.92,22.92,0,0,1-2.894,11.2,20.276,20.276,0,0,0-5.768-.839,20.132,20.132,0,0,0-3.46.3,11.527,11.527,0,0,0-11.066-8.358,11.524,11.524,0,0,0-11.052,8.318,19.93,19.93,0,0,0-3.2-.257,20.136,20.136,0,0,0-5.74.833A22.88,22.88,0,0,1-3385.955,2262.513Zm0-18.421a2.3,2.3,0,0,1,2.3-2.3,2.3,2.3,0,0,1,1.662.715,27.72,27.72,0,0,0-3.046,3.423A2.3,2.3,0,0,1-3385.955,2244.092Zm-6.907,0a9.217,9.217,0,0,1,9.208-9.208,9.191,9.191,0,0,1,7.224,3.507c-.675.378-1.332.787-1.973,1.219a6.89,6.89,0,0,0-5.251-2.426,6.911,6.911,0,0,0-6.908,6.908,6.912,6.912,0,0,0,3.073,5.747c-.355.68-.678,1.386-.975,2.1A9.212,9.212,0,0,1-3392.862,2244.092Zm50.651-9.208a9.22,9.22,0,0,1,9.21,9.208,9.212,9.212,0,0,1-4.374,7.834c-.3-.719-.624-1.419-.978-2.1a6.9,6.9,0,0,0,3.048-5.73,6.91,6.91,0,0,0-6.906-6.908,6.882,6.882,0,0,0-5.242,2.416q-.96-.654-1.976-1.218A9.2,9.2,0,0,1-3342.211,2234.884Zm1.4,11.032a27.734,27.734,0,0,0-3.048-3.426,2.3,2.3,0,0,1,1.649-.7,2.3,2.3,0,0,1,2.3,2.3A2.294,2.294,0,0,1-3340.812,2245.916Zm12.6,41.825a11.911,11.911,0,0,1,2.115,7.011,11.911,11.911,0,0,1-2.115,7.012,4.922,4.922,0,0,1-3.643,2.206,4.92,4.92,0,0,1-3.642-2.206,10,10,0,0,1-1.35-2.546,2.3,2.3,0,0,0,1.538-2.169,2.3,2.3,0,0,0-2.157-2.293,2.3,2.3,0,0,0,2.157-2.3,2.3,2.3,0,0,0-1.538-2.17,9.948,9.948,0,0,1,1.35-2.548,4.92,4.92,0,0,1,3.642-2.206A4.922,4.922,0,0,1-3328.208,2287.741Zm-3.643,20.832c5.724,0,10.362-6.188,10.362-13.821s-4.638-13.821-10.362-13.821c-.188,0-.377.007-.563.02a20.2,20.2,0,0,0-6.118-5.413,27.519,27.519,0,0,0,3.258-13.025,27.765,27.765,0,0,0-.678-6.1,13.814,13.814,0,0,0,7.555-12.317,13.815,13.815,0,0,0-13.814-13.815,13.793,13.793,0,0,0-11.5,6.166,27.546,27.546,0,0,0-9.207-1.573,27.593,27.593,0,0,0-9.228,1.579,13.81,13.81,0,0,0-11.507-6.172,13.815,13.815,0,0,0-13.815,13.815,13.81,13.81,0,0,0,7.581,12.33,27.915,27.915,0,0,0-.674,6.091,27.53,27.53,0,0,0,3.251,13.012,20.19,20.19,0,0,0-6.141,5.427c-.185-.011-.374-.021-.564-.021-5.719,0-10.36,6.19-10.36,13.821s4.641,13.821,10.36,13.821a7.805,7.805,0,0,0,1.323-.11q1.163,1.946,2.522,3.81a17.247,17.247,0,0,0-5,12.405c0,8.9,6.186,16.115,13.814,16.115,5.326,0,9.943-3.508,12.25-8.654,3.663,2.586,6.172,4.051,6.172,4.051s2.51-1.465,6.172-4.051c2.307,5.146,6.924,8.654,12.246,8.654,7.629,0,13.814-7.214,13.814-16.115a17.251,17.251,0,0,0-4.991-12.405q1.351-1.86,2.519-3.81a7.806,7.806,0,0,0,1.322.11" transform="translate(5186 11845)" fill="#070505" fill-rule="evenodd"/>
    <path id="Path_819" data-name="Path 819" d="M-3356.026,2257.906a2.3,2.3,0,0,0,2.3-2.3,2.3,2.3,0,0,0-2.3-2.3,2.305,2.305,0,0,0-2.3,2.3,2.3,2.3,0,0,0,2.3,2.3" transform="translate(5186 11845)" fill="#070505" fill-rule="evenodd"/>
    <path id="Path_820" data-name="Path 820" d="M-3369.84,2257.906a2.3,2.3,0,0,0,2.3-2.3,2.305,2.305,0,0,0-2.3-2.3,2.3,2.3,0,0,0-2.3,2.3,2.3,2.3,0,0,0,2.3,2.3" transform="translate(5186 11845)" fill="#070505" fill-rule="evenodd"/>
  </g>
</svg>